<?xml version="1.0" encoding="UTF-8"?>
<svg id="Calque_1" xmlns="http://www.w3.org/2000/svg" version="1.1" viewBox="0 0 1190.55 841.89">
  <!-- Generator: Adobe Illustrator 29.0.0, SVG Export Plug-In . SVG Version: 2.1.0 Build 186)  -->
  <defs>
    <style>
      .st0 {
        fill: #fff;
      }

      .st1 {
        fill: #e1b129;
      }
    </style>
  </defs>
  <g>
    <path class="st0" d="M138.71,505.81c-10.07,0-19.73-1.32-28.96-3.95-9.24-2.63-16.57-5.82-21.97-9.58l10.82-21.41c5.41,3.46,11.87,6.31,19.38,8.56,7.51,2.25,15.02,3.38,22.54,3.38,8.86,0,15.29-1.2,19.27-3.61,3.98-2.4,5.97-5.63,5.97-9.69,0-3.3-1.35-5.82-4.06-7.55-2.7-1.72-6.24-3.04-10.59-3.95-4.36-.9-9.21-1.72-14.54-2.48-5.33-.75-10.67-1.76-16-3.04-5.34-1.27-10.19-3.15-14.54-5.63-4.36-2.48-7.89-5.82-10.59-10.03s-4.06-9.76-4.06-16.68c0-7.66,2.18-14.31,6.53-19.94,4.36-5.63,10.48-9.99,18.37-13.07,7.89-3.08,17.24-4.62,28.06-4.62,8.12,0,16.3.9,24.57,2.7s15.1,4.36,20.51,7.66l-10.82,21.41c-5.71-3.45-11.46-5.82-17.24-7.1-5.79-1.27-11.53-1.92-17.24-1.92-8.56,0-14.91,1.28-19.05,3.83-4.13,2.56-6.2,5.79-6.2,9.69,0,3.61,1.35,6.31,4.06,8.12,2.7,1.8,6.23,3.23,10.59,4.28s9.2,1.92,14.54,2.59c5.33.68,10.63,1.69,15.89,3.04s10.11,3.19,14.54,5.52c4.43,2.33,8,5.6,10.71,9.8s4.06,9.69,4.06,16.45c0,7.52-2.22,14.05-6.65,19.61-4.44,5.56-10.71,9.88-18.82,12.96-8.11,3.08-17.8,4.62-29.07,4.62Z"/>
    <path class="st0" d="M304.03,395.03c-9.53-8.33-23.03-12.52-40.43-12.52-9.65,0-18.9,1.26-27.86,3.73-8.96,2.47-16.66,6.2-23.09,11.14l11.03,20.5c4.54-3.73,10.05-6.66,16.54-8.79,6.55-2.07,13.21-3.16,19.99-3.16,10.05,0,17.57,2.3,22.51,6.89,4.94,4.59,7.47,11.03,7.47,19.3v1.78h-31.13c-12.18,0-21.94,1.55-29.29,4.71-7.35,3.16-12.64,7.47-15.91,12.86-3.22,5.4-4.82,11.49-4.82,18.26s1.84,13.09,5.51,18.61c3.68,5.46,8.9,9.76,15.68,12.81,6.78,3.1,14.65,4.65,23.66,4.65,10.68,0,19.47-1.95,26.48-5.86,4.82-2.7,8.61-6.15,11.37-10.4v14.65h26.59v-70.53c0-17.4-4.77-30.32-14.3-38.65ZM278.36,480.55c-5.51,3.16-11.72,4.77-18.61,4.77-7.24,0-12.87-1.49-16.89-4.54-4.08-2.99-6.09-7.06-6.09-12.18,0-4.48,1.61-8.27,4.94-11.37,3.27-3.04,9.76-4.59,19.35-4.59h29.12v13.96c-2.41,6.15-6.38,10.8-11.83,13.96Z"/>
    <path class="st0" d="M426.76,497.67c-3.33,2.76-7.35,4.77-12.18,6.09-4.82,1.38-9.76,2.07-14.87,2.07-13.21,0-23.43-3.45-30.67-10.28-7.18-6.83-10.8-16.94-10.8-30.32v-57.89h-19.87v-22.57h19.87v-27.45h28.14v27.45h32.28v22.57h-32.28v57.26c0,5.69,1.49,10.11,4.42,13.27,2.93,3.16,7.01,4.77,12.29,4.77,6.32,0,11.54-1.67,15.74-5l7.93,20.04Z"/>
    <path class="st0" d="M549.78,413.53c-4.94-9.07-11.72-16.14-20.39-21.19-8.61-5.05-18.49-7.58-29.63-7.58s-20.85,2.64-29.64,7.81c-8.79,5.17-15.68,12.29-20.73,21.31-5.05,9.02-7.52,19.35-7.52,31.07s2.58,22.11,7.87,31.24c5.28,9.07,12.52,16.2,21.88,21.42,9.3,5.17,20.1,7.75,32.45,7.75,9.48,0,18.15-1.67,26.02-4.94,7.87-3.33,14.47-8.16,19.7-14.47l-9.02-10.34c-4.48,5.28-9.88,9.19-16.08,11.72-6.26,2.58-12.98,3.85-20.16,3.85-9.19,0-17.34-1.95-24.47-5.74-7.12-3.85-12.69-9.19-16.71-16.02-3.33-5.74-5.28-12.23-5.74-19.47h99.42c0-.92.06-1.78.11-2.64.06-.8.11-1.61.11-2.36,0-11.83-2.47-22.34-7.47-31.42ZM457.6,437.99c.57-6.66,2.35-12.69,5.23-18.03,3.56-6.78,8.61-12.06,15.1-15.79,6.43-3.73,13.73-5.63,21.82-5.63s15.56,1.89,21.88,5.63c6.32,3.73,11.31,8.96,14.99,15.68,2.99,5.4,4.77,11.49,5.28,18.15h-84.31Z"/>
    <path class="st0" d="M589.91,504.23v-167.23h16v167.23h-16Z"/>
    <path class="st0" d="M658.66,359.76c-3.31,0-6.09-1.13-8.34-3.38s-3.38-4.96-3.38-8.11,1.13-5.82,3.38-8c2.25-2.18,5.03-3.27,8.34-3.27s6.09,1.05,8.34,3.16c2.25,2.11,3.38,4.73,3.38,7.89,0,3.31-1.09,6.09-3.26,8.34-2.18,2.25-5,3.38-8.45,3.38ZM650.54,504.23v-118.33h16v118.33h-16Z"/>
    <path class="st0" d="M773.6,497.04c-3.16,2.81-6.95,4.94-11.37,6.32-4.42,1.32-8.96,2.01-13.67,2.01-11.08,0-19.64-2.99-25.67-9.02-6.03-6.03-9.02-14.47-9.02-25.44v-71.68h-21.19v-13.32h21.19v-26.13h16.02v26.13h36.07v13.32h-36.07v70.76c0,6.89,1.72,12.23,5.28,15.97,3.5,3.79,8.61,5.69,15.22,5.69,7.06,0,12.92-2.07,17.57-6.09l5.63,11.49Z"/>
    <path class="st0" d="M894.44,413.53c-5-9.07-11.77-16.14-20.45-21.19-8.61-5.05-18.49-7.58-29.63-7.58s-20.85,2.64-29.64,7.81c-8.79,5.17-15.68,12.29-20.73,21.31-5,9.02-7.52,19.35-7.52,31.07s2.64,22.11,7.87,31.24c5.28,9.07,12.52,16.2,21.88,21.42,9.3,5.17,20.1,7.75,32.45,7.75,9.48,0,18.15-1.67,26.02-4.94,7.87-3.33,14.47-8.16,19.76-14.47l-9.07-10.34c-4.48,5.28-9.82,9.19-16.08,11.72-6.26,2.58-12.98,3.85-20.16,3.85-9.19,0-17.34-1.95-24.47-5.74-7.12-3.85-12.69-9.19-16.66-16.02-3.39-5.74-5.28-12.23-5.8-19.47h99.42c0-.92.06-1.78.11-2.64.06-.8.11-1.61.11-2.36,0-11.83-2.47-22.34-7.41-31.42ZM802.26,437.99c.57-6.66,2.3-12.69,5.17-18.03,3.62-6.78,8.61-12.06,15.1-15.79,6.43-3.73,13.73-5.63,21.82-5.63s15.56,1.89,21.88,5.63c6.32,3.73,11.31,8.96,14.99,15.68,2.99,5.4,4.77,11.49,5.28,18.15h-84.25Z"/>
  </g>
  <g>
    <polygon class="st1" points="1033.55 336.07 1033.48 396.67 1022.31 396.8 1019.5 396.87 1017.5 398.87 993.02 424.02 991.08 426.03 991.08 438.54 928.61 439.34 949.34 403.96 998.3 403.35 997.63 354.33 997.77 354.26 1033.55 336.07"/>
    <polygon class="st0" points="1082.04 437.93 1033.08 438.54 1033.75 487.56 1033.62 487.63 997.83 505.82 997.9 438.4 997.9 428.77 1022.38 403.62 1033.48 403.49 1102.78 402.55 1082.04 437.93"/>
  </g>
</svg>